<svg xmlns="http://www.w3.org/2000/svg" width="600" height="400" viewBox="0 0 600 400"><rect width="100%" height="100%" fill="#DDDDDD"/><path fill="#999999" d="M165.765 170.14h9.96v60.73h-5.8q-1.34 0-2.25-.44-.9-.44-1.74-1.49l-31.71-40.49q.25 2.77.25 5.12v37.3h-9.95v-60.73h5.92q.71 0 1.24.06.52.06.92.25t.78.55.84.94l31.84 40.66q-.13-1.47-.21-2.9-.09-1.43-.09-2.64zm40.91 16.97q4.79 0 8.72 1.55 3.92 1.55 6.72 4.41 2.79 2.86 4.3 6.97 1.51 4.12 1.51 9.2 0 5.12-1.51 9.24t-4.3 7.01q-2.8 2.9-6.72 4.46-3.93 1.55-8.72 1.55-4.83 0-8.78-1.55-3.95-1.56-6.74-4.46-2.79-2.89-4.33-7.01-1.53-4.12-1.53-9.24 0-5.08 1.53-9.2 1.54-4.11 4.33-6.97t6.74-4.41 8.78-1.55m0 36.41q5.38 0 7.96-3.61t2.58-10.59q0-6.97-2.58-10.62-2.58-3.66-7.96-3.66-5.46 0-8.09 3.68-2.62 3.67-2.62 10.6t2.62 10.57q2.63 3.63 8.09 3.63m62.54-22.85h8.44q3.11 0 5.42-.78 2.31-.77 3.84-2.22t2.29-3.53.76-4.64q0-2.44-.76-4.41t-2.27-3.36-3.82-2.12q-2.31-.74-5.46-.74h-8.44zm-11.3-30.53h19.74q6.09 0 10.54 1.43 4.45 1.42 7.35 3.99 2.9 2.56 4.31 6.13 1.4 3.57 1.4 7.81 0 4.41-1.47 8.08-1.47 3.68-4.41 6.33-2.94 2.64-7.37 4.11t-10.35 1.47h-8.44v21.38h-11.3zm60.73-1.68v23.94q2.52-2.35 5.55-3.82 3.02-1.47 7.09-1.47 3.53 0 6.26 1.19 2.73 1.2 4.56 3.36 1.83 2.17 2.77 5.17.95 3 .95 6.61v27.43h-10.38v-27.43q0-3.94-1.8-6.11-1.81-2.16-5.51-2.16-2.68 0-5.04 1.22-2.35 1.22-4.45 3.32v31.16h-10.37v-62.41zm56.07 18.65q4.79 0 8.72 1.55 3.92 1.55 6.72 4.41 2.79 2.86 4.3 6.97 1.51 4.12 1.51 9.2 0 5.12-1.51 9.24t-4.3 7.01q-2.8 2.9-6.72 4.46-3.93 1.55-8.72 1.55-4.83 0-8.78-1.55-3.94-1.56-6.74-4.46-2.79-2.89-4.32-7.01-1.54-4.12-1.54-9.24 0-5.08 1.54-9.2 1.53-4.11 4.32-6.97 2.8-2.86 6.74-4.41 3.95-1.55 8.78-1.55m0 36.41q5.38 0 7.96-3.61t2.58-10.59q0-6.97-2.58-10.62-2.58-3.66-7.96-3.66-5.46 0-8.08 3.68-2.63 3.67-2.63 10.6t2.63 10.57q2.62 3.63 8.08 3.63m43.56 8.02q-5.63 0-8.63-3.17-3.01-3.17-3.01-8.76v-24.06h-4.41q-.84 0-1.43-.55-.58-.54-.58-1.64v-4.11l6.93-1.14 2.18-11.76q.21-.84.8-1.3t1.51-.46h5.38v13.57h11.5v7.39h-11.5v23.35q0 2.02.98 3.15.99 1.13 2.71 1.13.97 0 1.62-.23t1.13-.48q.49-.25.86-.48.38-.23.76-.23.46 0 .76.23.29.23.63.69l3.1 5.04q-2.26 1.89-5.2 2.86-2.94.96-6.09.96m35.95-44.43q4.79 0 8.71 1.55 3.93 1.55 6.72 4.41 2.8 2.86 4.31 6.97 1.51 4.12 1.51 9.2 0 5.12-1.51 9.24t-4.31 7.01q-2.79 2.9-6.72 4.46-3.92 1.55-8.71 1.55-4.83 0-8.78-1.55-3.95-1.56-6.74-4.46-2.79-2.89-4.33-7.01-1.53-4.12-1.53-9.24 0-5.08 1.53-9.2 1.54-4.11 4.33-6.97t6.74-4.41 8.78-1.55m0 36.41q5.37 0 7.96-3.61 2.58-3.61 2.58-10.59 0-6.97-2.58-10.62-2.59-3.66-7.96-3.66-5.46 0-8.09 3.68-2.62 3.67-2.62 10.6t2.62 10.57q2.63 3.63 8.09 3.63"/></svg>